<svg width="29" height="27" viewBox="0 0 29 27" fill="none" xmlns="http://www.w3.org/2000/svg">
<path d="M26.4383 3.46564C26.4367 3.22898 26.3992 2.98814 26.3417 2.75814C25.9592 1.21148 24.6817 0.228976 23.0292 0.221476C21.0433 0.213143 19.0583 0.21981 17.0725 0.21981C12.6958 0.21981 8.32 0.215643 3.94334 0.221476C1.93667 0.223976 0.493336 1.64314 0.491669 3.61481C0.486669 9.56231 0.488336 15.5098 0.494169 21.4573C0.494169 21.7348 0.524169 22.0198 0.590002 22.289C0.959169 23.8106 2.23167 24.8265 3.83334 24.8323C7.64834 24.8473 11.4633 24.8373 15.2792 24.8373C15.34 24.8373 15.4017 24.8281 15.5117 24.8198C15.5117 24.7148 15.5175 24.6331 15.5108 24.5531C15.4275 23.519 15.7283 22.599 16.2542 21.7115C17.5025 19.6023 18.7058 17.4665 19.9433 15.3506C20.2608 14.8065 20.575 14.2781 20.4608 13.6123C20.4583 13.5956 20.475 13.5756 20.4967 13.5231C20.9942 13.6848 21.13 13.289 21.315 12.9615C21.3608 12.8806 21.4075 12.7998 21.4542 12.7181C21.6742 12.3348 21.8942 11.9523 22.1433 11.5198H20.4792V7.55148H24.4367C24.445 7.71314 24.4517 7.86064 24.4583 7.98981C24.7892 7.86814 25.09 7.71814 25.4083 7.65148C25.7367 7.58314 26.0808 7.59731 26.435 7.57398C26.4383 7.52731 26.4442 7.47731 26.4442 7.42731C26.4442 6.10648 26.4475 4.78564 26.4383 3.46564ZM6.455 22.8206C5.485 22.8206 4.52084 22.8531 3.56084 22.8081C3.01917 22.7823 2.5375 22.254 2.50584 21.6931C2.46584 20.9815 2.49584 20.2648 2.49584 19.5231H6.455V22.8206ZM6.45667 17.5006H2.50417V13.5423H6.45667V17.5006ZM6.46334 11.5056H2.50834V7.55064H6.46334V11.5056ZM6.46334 5.52231H2.48667V4.86064C2.48667 4.41398 2.47917 3.96731 2.48917 3.52064C2.5025 2.88731 2.95834 2.28314 3.55834 2.25064C4.51917 2.19898 5.48417 2.23648 6.46334 2.23648V5.52231ZM17.0167 14.0848C15.6842 14.849 14.3558 15.619 13.025 16.3873C12.6658 16.5948 12.3067 16.804 11.9467 17.0098C10.8542 17.634 9.8025 17.0315 9.79834 15.7781C9.795 14.8015 9.7975 13.8248 9.7975 12.8473C9.7975 11.8815 9.79584 10.9148 9.79834 9.94814C9.80167 8.68898 10.8533 8.08481 11.9433 8.71314C13.6425 9.69314 15.3408 10.6756 17.0408 11.654C17.4967 11.9165 17.7767 12.2881 17.7875 12.829C17.7983 13.4098 17.5058 13.804 17.0167 14.0848ZM24.4483 5.51398H20.4667V2.23898C20.5567 2.23148 20.645 2.21731 20.7333 2.21731C21.4917 2.21564 22.25 2.21314 23.0083 2.21731C23.9092 2.22231 24.4442 2.75648 24.4475 3.65064C24.45 4.26398 24.4483 4.87648 24.4483 5.51398Z" fill="#FF782D"/>
<path d="M23.5833 11.6948C21.5475 15.2223 19.5225 18.7307 17.4858 22.259C18.6558 22.934 19.7917 23.5898 20.9458 24.2557C22.9867 20.7207 25.0117 17.2123 27.0433 13.6915C25.87 13.014 24.74 12.3623 23.5833 11.6948ZM23.735 16.7298C23.5433 17.0407 23.1608 17.0998 22.8558 16.9157C22.5675 16.7407 22.4375 16.3823 22.6033 16.0757C22.9383 15.4548 23.2892 14.8415 23.6667 14.2457C23.7642 14.0923 23.9842 14.0157 24.1483 13.904C24.6758 13.954 25.0217 14.4548 24.7925 14.8973C24.4675 15.5232 24.1058 16.1307 23.735 16.7298Z" fill="#FF782D"/>
<path d="M26.4442 21.4117C26.4375 23.385 25.03 24.8084 23.06 24.8375C22.7808 24.8409 22.5017 24.8375 22.145 24.8375C22.5392 24.155 22.8983 23.5267 23.2675 22.905C23.3025 22.8467 23.4 22.8167 23.4742 22.79C24.1183 22.5634 24.4625 22.1134 24.44 21.4309C24.4267 21.0184 24.5333 20.6717 24.7442 20.3217C25.3042 19.3909 25.8367 18.4425 26.4217 17.4292C26.4325 17.595 26.4442 17.6809 26.4442 17.7667C26.445 18.9817 26.4475 20.1967 26.4442 21.4117Z" fill="#FF782D"/>
<path d="M28.2958 11.5099C28.1233 11.8507 27.9183 12.1749 27.71 12.5382C26.5408 11.864 25.4042 11.2082 24.2467 10.5407C24.4708 10.1607 24.66 9.79071 24.8942 9.45321C25.2642 8.92071 25.9742 8.75655 26.5583 9.06155C26.99 9.28655 27.4125 9.53071 27.8233 9.79155C28.4158 10.1665 28.6125 10.8857 28.2958 11.5099Z" fill="#FF782D"/>
<path d="M20.1967 25.3631C20.0008 25.5065 19.8533 25.6373 19.6858 25.7331C19.0917 26.0731 18.495 26.409 17.8917 26.7323C17.4392 26.9756 16.9208 26.7631 16.8925 26.2831C16.8433 25.4348 16.8633 24.5823 16.8583 23.7306C16.8583 23.6615 16.8925 23.5906 16.9233 23.4731C18.0233 24.1081 19.0875 24.7231 20.1967 25.3631Z" fill="#FF782D"/>
</svg>
